<svg width="102" height="25" viewBox="0 0 102 25" fill="none" xmlns="http://www.w3.org/2000/svg">
<path d="M36.105 24.1488C35.9419 23.8329 35.7993 23.3183 35.677 22.605C34.4949 23.838 33.0479 24.4545 31.336 24.4545C29.675 24.4545 28.3197 23.9806 27.2701 23.0329C26.2205 22.0853 25.6957 20.9134 25.6957 19.5173C25.6957 17.7544 26.3479 16.4042 27.6522 15.4667C28.9667 14.519 30.8417 14.0452 33.2772 14.0452H35.5547V12.9599C35.5547 12.1039 35.3152 11.4212 34.8363 10.9117C34.3574 10.392 33.6288 10.1321 32.6505 10.1321C31.8047 10.1321 31.1118 10.3461 30.5717 10.7741C30.0316 11.1919 29.7616 11.7269 29.7616 12.3791H26.0472C26.0472 11.4721 26.3479 10.6264 26.9491 9.84171C27.5503 9.04688 28.3655 8.42527 29.3947 7.9769C30.4341 7.52853 31.5907 7.30435 32.8645 7.30435C34.8006 7.30435 36.3445 7.79348 37.496 8.77174C38.6474 9.73981 39.2385 11.1053 39.269 12.8682V20.3274C39.269 21.8152 39.4779 23.0024 39.8957 23.8889V24.1488H36.105ZM32.0238 21.4738C32.7575 21.4738 33.4453 21.2955 34.0873 20.9389C34.7395 20.5822 35.2286 20.1033 35.5547 19.502V16.3838H33.5523C32.1767 16.3838 31.1423 16.6233 30.4494 17.1022C29.7565 17.5812 29.41 18.2588 29.41 19.1352C29.41 19.8485 29.6444 20.4192 30.1131 20.8471C30.5921 21.2649 31.229 21.4738 32.0238 21.4738Z" fill="#00B5C0"/>
<path d="M47.1257 21.1834H55.9301V24.1488H42.5095V21.7184L50.9012 10.606H42.6624V7.61005H55.6091V9.96399L47.1257 21.1834Z" fill="#00B5C0"/>
<path d="M68.785 24.1488C68.622 23.8329 68.4793 23.3183 68.357 22.605C67.175 23.838 65.7279 24.4545 64.016 24.4545C62.355 24.4545 60.9997 23.9806 59.9501 23.0329C58.9005 22.0853 58.3757 20.9134 58.3757 19.5173C58.3757 17.7544 59.0279 16.4042 60.3322 15.4667C61.6468 14.519 63.5218 14.0452 65.9572 14.0452H68.2347V12.9599C68.2347 12.1039 67.9953 11.4212 67.5163 10.9117C67.0374 10.392 66.3088 10.1321 65.3305 10.1321C64.4847 10.1321 63.7918 10.3461 63.2517 10.7741C62.7116 11.1919 62.4416 11.7269 62.4416 12.3791H58.7273C58.7273 11.4721 59.0279 10.6264 59.6291 9.84171C60.2303 9.04688 61.0455 8.42527 62.0748 7.9769C63.1142 7.52853 64.2707 7.30435 65.5445 7.30435C67.4807 7.30435 69.0245 7.79348 70.176 8.77174C71.3275 9.73981 71.9185 11.1053 71.9491 12.8682V20.3274C71.9491 21.8152 72.158 23.0024 72.5758 23.8889V24.1488H68.785ZM64.7038 21.4738C65.4375 21.4738 66.1254 21.2955 66.7673 20.9389C67.4195 20.5822 67.9087 20.1033 68.2347 19.502V16.3838H66.2324C64.8567 16.3838 63.8224 16.6233 63.1294 17.1022C62.4365 17.5812 62.09 18.2588 62.09 19.1352C62.09 19.8485 62.3244 20.4192 62.7932 20.8471C63.2721 21.2649 63.909 21.4738 64.7038 21.4738Z" fill="#00B5C0"/>
<path d="M85.7212 24.1488C85.5581 23.8329 85.4154 23.3183 85.2932 22.605C84.1111 23.838 82.6641 24.4545 80.9521 24.4545C79.2911 24.4545 77.9358 23.9806 76.8862 23.0329C75.8366 22.0853 75.3118 20.9134 75.3118 19.5173C75.3118 17.7544 75.964 16.4042 77.2684 15.4667C78.5829 14.519 80.4579 14.0452 82.8934 14.0452H85.1709V12.9599C85.1709 12.1039 84.9314 11.4212 84.4525 10.9117C83.9735 10.392 83.2449 10.1321 82.2667 10.1321C81.4209 10.1321 80.7279 10.3461 80.1879 10.7741C79.6478 11.1919 79.3777 11.7269 79.3777 12.3791H75.6634C75.6634 11.4721 75.964 10.6264 76.5652 9.84171C77.1665 9.04688 77.9817 8.42527 79.0109 7.9769C80.0503 7.52853 81.2069 7.30435 82.4807 7.30435C84.4168 7.30435 85.9606 7.79348 87.1121 8.77174C88.2636 9.73981 88.8546 11.1053 88.8852 12.8682V20.3274C88.8852 21.8152 89.0941 23.0024 89.5119 23.8889V24.1488H85.7212ZM81.64 21.4738C82.3737 21.4738 83.0615 21.2955 83.7035 20.9389C84.3557 20.5822 84.8448 20.1033 85.1709 19.502V16.3838H83.1685C81.7928 16.3838 80.7585 16.6233 80.0656 17.1022C79.3727 17.5812 79.0262 18.2588 79.0262 19.1352C79.0262 19.8485 79.2606 20.4192 79.7293 20.8471C80.2082 21.2649 80.8451 21.4738 81.64 21.4738Z" fill="#00B5C0"/>
<path d="M101.434 11.0034C100.945 10.9219 100.441 10.8811 99.9212 10.8811C98.2195 10.8811 97.0731 11.5333 96.482 12.8376V24.1488H92.7677V7.61005H96.3139L96.4056 9.45958C97.3023 8.02276 98.5455 7.30435 100.135 7.30435C100.665 7.30435 101.103 7.37568 101.45 7.51834L101.434 11.0034Z" fill="#00B5C0"/>
<path d="M17.5833 14.9416C18.0574 15.5188 18.3422 16.2587 18.3422 17.0654C18.3422 18.9094 16.8542 20.4043 15.0185 20.4043H4.25732L0.677917 24H15.0185C18.831 24 21.9217 20.8953 21.9217 17.0654C21.9217 15.6436 21.4957 14.3217 20.765 13.2216C19.8528 14.0071 18.7715 14.6012 17.5833 14.9416Z" fill="url(#paint0_linear_14_84)"/>
<path d="M14.4585 13.8212H14.9927C18.8052 13.8212 21.8959 10.7272 21.8959 6.91061C21.8959 3.09399 18.8052 0 14.9927 0H0.652161L4.23157 3.58328H14.9927C16.8284 3.58328 18.3165 5.07298 18.3165 6.91061C18.3165 8.74825 16.8284 10.2379 14.9927 10.2379H10.8791L14.4585 13.8212Z" fill="url(#paint1_linear_14_84)"/>
<defs>
<linearGradient id="paint0_linear_14_84" x1="19.4658" y1="12.5393" x2="1.32827" y2="25.3781" gradientUnits="userSpaceOnUse">
<stop stop-color="#00B5C0"/>
<stop offset="1" stop-color="#DB00FF"/>
</linearGradient>
<linearGradient id="paint1_linear_14_84" x1="6.411" y1="7.24348e-07" x2="16.7769" y2="10.8778" gradientUnits="userSpaceOnUse">
<stop stop-color="#00B5C0"/>
<stop offset="1" stop-color="#DEE200"/>
</linearGradient>
</defs>
</svg>
