<svg width="149" height="167" viewBox="0 0 149 167" fill="none" xmlns="http://www.w3.org/2000/svg">
<path d="M117.994 103.969C121.293 107.985 123.275 113.133 123.275 118.747C123.275 131.578 112.921 141.98 100.148 141.98H25.2677L0.360962 167H100.148C126.676 167 148.182 145.396 148.182 118.747C148.182 108.853 145.218 99.6554 140.134 92C133.786 97.4659 126.262 101.6 117.994 103.969Z" fill="url(#paint0_linear_6_5)"/>
<path d="M96.2509 96.1727H99.9685C126.497 96.1727 148.003 74.6437 148.003 48.0863C148.003 21.529 126.497 0 99.9685 0H0.181946L25.0887 24.9337H99.9685C112.742 24.9337 123.096 35.2995 123.096 48.0863C123.096 60.8732 112.742 71.239 99.9685 71.239H71.3442L96.2509 96.1727Z" fill="url(#paint1_linear_6_5)"/>
<defs>
<linearGradient id="paint0_linear_6_5" x1="131.093" y1="87.2528" x2="4.88629" y2="176.59" gradientUnits="userSpaceOnUse">
<stop stop-color="#00B5C0"/>
<stop offset="1" stop-color="#DB00FF"/>
</linearGradient>
<linearGradient id="paint1_linear_6_5" x1="40.2539" y1="5.04026e-06" x2="112.383" y2="75.6915" gradientUnits="userSpaceOnUse">
<stop stop-color="#00B5C0"/>
<stop offset="1" stop-color="#DEE200"/>
</linearGradient>
</defs>
</svg>
