<svg width="32" height="32" viewBox="0 0 32 32" fill="none" xmlns="http://www.w3.org/2000/svg">
<circle cx="16" cy="16" r="16" fill="#EEEEEE"/>
<mask id="mask0_3875_3157" style="mask-type:alpha" maskUnits="userSpaceOnUse" x="0" y="0" width="32" height="32">
<circle cx="16" cy="16" r="16" fill="#EEEEEE"/>
</mask>
<g mask="url(#mask0_3875_3157)">
<path d="M5.99241 26.7773C5.84375 27.241 5.72877 27.7151 5.64746 28.1996C6.0801 28.5671 6.53253 28.912 7.00294 29.2325C7.12626 34.0956 11.1072 38 16 38C20.8927 38 24.8736 34.0958 24.997 29.2328C25.4687 28.9115 25.9224 28.5656 26.3561 28.197C26.2767 27.7134 26.1646 27.2402 26.0198 26.7773C25.6994 25.7539 25.2385 24.8047 24.6369 23.9297C24.0354 23.0547 23.3088 22.2891 22.4573 21.6328C21.6057 20.9766 20.6487 20.4648 19.5862 20.0977C20.1955 19.7617 20.7385 19.3594 21.2151 18.8906C21.6916 18.4219 22.1018 17.9023 22.4455 17.332C22.7893 16.7617 23.051 16.1523 23.2307 15.5039C23.4104 14.8555 23.5002 14.1875 23.5002 13.5C23.4924 12.4531 23.2971 11.4766 22.9143 10.5703C22.5315 9.66406 21.9963 8.87109 21.3088 8.19141C20.6213 7.51172 19.8244 6.97656 18.9182 6.58594C18.0119 6.19531 17.0393 6 16.0002 6C14.9533 6.00781 13.9768 6.20312 13.0705 6.58594C12.1643 6.96875 11.3713 7.50391 10.6916 8.19141C10.0119 8.87891 9.47678 9.67578 9.08616 10.582C8.69553 11.4883 8.50022 12.4609 8.50022 13.5C8.50022 14.1875 8.59397 14.8594 8.78147 15.5156C8.96897 16.1719 9.23069 16.7852 9.56663 17.3555C9.90257 17.9258 10.3127 18.4453 10.7971 18.9141C11.2815 19.3828 11.8283 19.7812 12.4377 20.1094C11.3752 20.5 10.4182 21.0195 9.56663 21.668C8.71507 22.3164 7.9885 23.0742 7.38694 23.9414C6.78538 24.8086 6.32053 25.7539 5.99241 26.7773Z" fill="#00B5C0"/>
</g>
</svg>
